<?xml version="1.0" encoding="utf-8"?>
<!-- Generator: Adobe Illustrator 24.1.0, SVG Export Plug-In . SVG Version: 6.00 Build 0)  -->
<svg version="1.1" id="Livello_1" xmlns="http://www.w3.org/2000/svg" xmlns:xlink="http://www.w3.org/1999/xlink" x="0px" y="0px"
	 viewBox="0 0 592.39 292.32" style="enable-background:new 0 0 592.39 292.32;" xml:space="preserve">
<style type="text/css">
	.st0{fill:#3F3F3E;stroke:#000000;stroke-miterlimit:10;}
	.st1{fill:#F6A000;}
</style>
<g>
	<rect class="st0" width="592.39" height="292.32"/>
	<g>
		<path class="st1" d="M438.44,49.13c7.27,25.58,10.25,49.62,10.25,75.41c0,25.79-2.98,49.84-10.25,75.63
			c-30.02,3.93-60.59,5.25-90.6,5.25c-24.98,0-50.34-0.87-89.49-2.4V46.07c35.23-0.87,64.32-2.4,89.67-2.4
			C377.86,43.66,408.43,45.19,438.44,49.13z M422.6,188.15c4.47-21.64,7.08-41.75,7.08-63.61c0-21.86-2.61-41.97-7.27-63.39
			c-24.61-2.4-48.47-3.5-74.57-3.5c-24.98,0-48.47,1.09-72.52,2.62v128.09c24.05,1.97,47.54,3.06,72.52,3.06
			C373.94,191.43,397.99,190.56,422.6,188.15z"/>
		<path class="st1" d="M267.8,143.01H163.22l44.37-81.54c7.87-0.66,17.05-1.09,25.57-1.09c8.74,0,17.71,0.44,25.79,1.09l13.22,24.4
			c-0.07-9,0.45-18,0.51-27.01c0.02-2.82,1.22-4.87,2.96-6.16l-2.92-5.45c-14.21-1.31-25.79-1.75-39.57-1.75
			c-13.55,0-25.36,0.44-39.56,1.75l-83.5,156.29h20.33l25.14-46.34h112.55C267.65,152.47,267.73,147.78,267.8,143.01z"/>
		<path class="st1" d="M335.46,193.32c-6.08,0.03-12.14,0.29-18.22,0.46l5.3,9.78h20.33l-5.59-10.43
			C336.72,193.25,336.11,193.32,335.46,193.32z"/>
	</g>
	<g>
		<path class="st1" d="M87.88,222.09l11.25,21H96.4l-3.38-6.22H72.14l-3.38,6.22h-2.73l11.22-21c1.91-0.18,3.49-0.24,5.31-0.24
			C84.42,221.85,85.97,221.91,87.88,222.09z M79.13,223.99l-5.96,10.95h18.79l-5.93-10.95c-1.09-0.09-2.29-0.15-3.47-0.15
			C81.42,223.85,80.19,223.91,79.13,223.99z"/>
		<path class="st1" d="M105.93,224.58v3.73c0,4.17,0.09,8.66,0.35,12.77c2.67,0.29,5.52,0.41,8.22,0.41c2.64,0,5.49-0.12,8.16-0.41
			c0.21-1,0.32-1.94,0.38-2.97h2.55c-0.06,1.62-0.23,3.08-0.56,4.76c-3.52,0.35-7.05,0.5-10.54,0.5c-3.55,0-7.05-0.15-10.6-0.5
			c-0.35-4.73-0.56-9.81-0.56-14.56v-3.73H105.93z"/>
		<path class="st1" d="M147.94,234.51h-15.15v6.64c3.53,0.29,7.25,0.41,10.75,0.41c3.26,0,6.87-0.12,10.07-0.41v1.79
			c-3.7,0.29-7.22,0.44-10.86,0.44c-4.17,0-8.4-0.15-12.54-0.44v-18.21c4.23-0.29,8.58-0.44,12.8-0.44c3.55,0,6.99,0.15,10.57,0.44
			v1.79c-3.26-0.3-7.02-0.41-10.31-0.41c-3.43,0-7.05,0.12-10.48,0.38v6.61h15.12L147.94,234.51z"/>
		<path class="st1" d="M172.01,232.69l8.19-8.11h2.82l-9.1,9.13l9.43,9.37h-2.82l-8.52-8.34c-0.7-0.06-1.59-0.06-2.35-0.06
			c-0.76,0-1.64,0-2.35,0.06l-8.52,8.34h-2.82l9.4-9.37l-9.07-9.13h2.82l8.19,8.11c0.7,0.06,1.59,0.06,2.35,0.06
			C170.43,232.75,171.31,232.75,172.01,232.69z"/>
		<path class="st1" d="M204.39,224.7l9.75,18.38h-2.58l-2.88-5.34h-18.12l-2.88,5.34h-2.58l9.75-18.38c1.7-0.15,3.11-0.2,4.76-0.2
			C201.25,224.49,202.66,224.55,204.39,224.7z M196.61,226.52l-5.08,9.43h16.18l-5.08-9.43c-0.94-0.09-2-0.15-3.02-0.15
			C198.61,226.37,197.55,226.43,196.61,226.52z"/>
		<path class="st1" d="M243.47,243.08h-2.58l-15.59-16.47c-1.62-0.09-2.91-0.12-4.49-0.12v16.59h-2.58v-18.5h0.56
			c2.53,0,5.23,0.06,8.05,0.21l14.07,15.09v-15.3h2.58V243.08z"/>
		<path class="st1" d="M274.47,224.96c1,2.99,1.41,5.84,1.41,8.87c0,3.03-0.41,5.87-1.41,8.9c-4.17,0.44-8.4,0.65-12.51,0.65
			c-3.44,0-6.87-0.12-12.39-0.32v-18.47c4.99-0.15,8.93-0.29,12.39-0.29C266.07,224.29,270.3,224.49,274.47,224.96z M272.09,241.17
			c0.62-2.47,0.94-4.82,0.94-7.34s-0.32-4.87-0.97-7.34c-3.35-0.29-6.58-0.41-10.1-0.41c-3.44,0-6.61,0.12-9.84,0.32v14.83
			c3.23,0.24,6.4,0.35,9.84,0.35C265.48,241.58,268.74,241.47,272.09,241.17z"/>
		<path class="st1" d="M299.48,234.51h-15.15v6.64c3.53,0.29,7.25,0.41,10.75,0.41c3.26,0,6.87-0.12,10.07-0.41v1.79
			c-3.7,0.29-7.22,0.44-10.86,0.44c-4.17,0-8.4-0.15-12.54-0.44v-18.21c4.23-0.29,8.58-0.44,12.8-0.44c3.55,0,6.99,0.15,10.57,0.44
			v1.79c-3.26-0.3-7.02-0.41-10.31-0.41c-3.43,0-7.05,0.12-10.48,0.38v6.61h15.12L299.48,234.51z"/>
		<path class="st1" d="M323.49,234.3c2.7,0,5.34-0.03,7.9-0.15c0.18-1.38,0.29-2.73,0.29-4.11c0-1.35-0.09-2.35-0.26-3.67
			c-3.14-0.24-6.22-0.35-9.48-0.35c-3.08,0-6.2,0-9.28,0.26v16.8h-2.53v-18.5c3.93-0.24,7.9-0.29,11.83-0.29
			c3.76,0,8.02,0.03,11.83,0.59c0.29,1.76,0.5,3.23,0.5,4.99c0,1.91-0.15,3.87-0.5,5.87c-3.14,0.18-6.7,0.18-10.01,0.21l10.22,7.14
			h-3.29l-11.92-8.25v-0.53H323.49z"/>
		<path class="st1" d="M381.67,222.38c1.14,3.43,1.62,6.66,1.62,10.13c0,3.47-0.47,6.7-1.62,10.16c-4.73,0.53-9.54,0.7-14.27,0.7
			c-3.93,0-7.93-0.12-14.1-0.32v-21.08c5.55-0.12,10.13-0.32,14.13-0.32C372.13,221.64,376.95,221.85,381.67,222.38z M379.18,241.06
			c0.7-2.91,1.12-5.61,1.12-8.55s-0.41-5.64-1.14-8.52c-3.88-0.32-7.64-0.47-11.75-0.47c-3.93,0-7.63,0.15-11.42,0.35v17.21
			c3.79,0.26,7.49,0.41,11.42,0.41C371.51,241.5,375.3,241.38,379.18,241.06z"/>
		<path class="st1" d="M407.36,234.51H392.2v6.64c3.53,0.29,7.25,0.41,10.75,0.41c3.26,0,6.87-0.12,10.07-0.41v1.79
			c-3.7,0.29-7.22,0.44-10.87,0.44c-4.17,0-8.4-0.15-12.54-0.44v-18.21c4.23-0.29,8.58-0.44,12.8-0.44c3.55,0,6.99,0.15,10.57,0.44
			v1.79c-3.26-0.3-7.02-0.41-10.31-0.41c-3.43,0-7.05,0.12-10.48,0.38v6.61h15.12L407.36,234.51z"/>
		<path class="st1" d="M418.12,233.39c-0.26-1.44-0.38-2.7-0.38-4.14c0-1.59,0.12-2.82,0.38-4.38c3.85-0.38,7.69-0.59,11.48-0.59
			c3.88,0,7.81,0.15,11.72,0.47v1.7c-3.46-0.26-7.02-0.44-10.78-0.44c-3.49,0-6.84,0.18-10.1,0.44c-0.12,0.94-0.18,1.82-0.18,2.79
			c0,0.88,0.06,1.76,0.18,2.64c6.87,0.62,13.86,0.5,21.14,1.53c0.24,1.64,0.38,2.99,0.38,4.58c0,1.73-0.12,3.08-0.38,4.85
			c-3.93,0.35-7.87,0.53-11.75,0.53s-7.84-0.09-11.75-0.41v-1.7c3.53,0.24,7.14,0.38,10.95,0.38c3.55,0,6.93-0.15,10.16-0.41
			c0.15-1.06,0.2-2.14,0.2-3.26c0-1.03-0.06-2.06-0.2-3.08C432.28,234.24,425.29,234.27,418.12,233.39z"/>
		<path class="st1" d="M450.45,243.08h-2.58v-18.5h2.58V243.08z"/>
		<path class="st1" d="M478.9,241.08c0.26-1.23,0.41-2.5,0.44-5.96h-6.84v-1.53h9.43c-0.06,5.26-0.26,7.25-0.62,9.19
			c-4.05,0.38-8.1,0.59-12.13,0.59c-4.11,0-8.19-0.2-12.3-0.59c-0.26-3.05-0.47-5.9-0.47-8.96c0-3.08,0.15-5.96,0.44-9.04
			c4.14-0.32,8.22-0.5,12.33-0.5c4.17,0,8.43,0.09,12.66,0.44v1.85c-3.7-0.29-7.99-0.41-11.66-0.41c-3.49,0-7.4,0.06-10.89,0.35
			c-0.2,2.47-0.32,4.82-0.32,7.31c0,2.5,0.15,4.82,0.35,7.25c3.2,0.29,6.64,0.41,9.87,0.41C472.29,241.5,475.78,241.38,478.9,241.08
			z"/>
		<path class="st1" d="M513.16,243.08h-2.58l-15.59-16.47c-1.62-0.09-2.91-0.12-4.49-0.12v16.59h-2.58v-18.5h0.56
			c2.53,0,5.23,0.06,8.05,0.21l14.07,15.09v-15.3h2.58V243.08z"/>
	</g>
</g>
</svg>
